<svg xmlns="http://www.w3.org/2000/svg" width="28" height="28" fill="none"><rect width="27" height="27" fill="#151515" rx="3.5" transform="translate(.5 .5)"/><path fill="#F3F3F3" fill-rule="evenodd" d="M15.62 6.73c-2.73-1.53-6.24-.59-7.84 2.1-1.6 2.7-.68 6.12 2.05 7.66l.88.49V22h4.65c3.11 0 5.64-2.53 5.64-5.64 0-2.11-1.17-3.95-2.89-4.92l1.47-2.48-3.96-2.23Zm2.49 4.71c-.82-.45-1.75-.71-2.75-.71h-4.65v6.25l3.08 1.74 4.32-7.28Z"/><rect width="27" height="27" rx="3.5" transform="translate(.5 .5)"/></svg>